<svg xmlns="http://www.w3.org/2000/svg" viewBox="0 0 298 203.13333">
  <title>Asset 1</title>
  <g id="Layer_2" data-name="Layer 2">
    <g id="Layer_1-2" data-name="Layer 1">
      <path d="M298,17.13333v186H0v-174.91c.45-.96.79-1.66,1-2.09a33.659,33.659,0,0,1,11-11c11.11-6.66,25.09-5.33,39-4,6.96.67,13.14,1.81,22,0,1.25-.26,4.17-1.17005,10-3,11.85-3.72,16.16-5.57,24-7a53.15073,53.15073,0,0,1,15-1c10.68.79,35,11,35,11,25.68,10.78,35.7,13.01,43,14,1.87.25,5.24.65,9,1a236.479,236.479,0,0,0,26,1c14.64-.33,25.9-2.46,39-5C294.25,18.21328,294.78,16.37332,298,17.13333Z" style="fill: white"/>
    </g>
  </g>
</svg>
